<svg xmlns="http://www.w3.org/2000/svg" width="100%" height="100%" viewBox="0 0 800 480"><rect width="800" height="480" fill="#fff"/><defs><marker id="arrow" markerHeight="10" markerWidth="10" orient="auto-start-reverse" refX="8" refY="5"><path fill="#333" d="M 0 0 L 10 5 L 0 10 z"/></marker><style>.box,.line{stroke-width:2}.box{rx:6;ry:6}.line{stroke:#333;fill:none}.title{font-family:&apos;Segoe UI&apos;,Arial,sans-serif;font-size:16px;font-weight:700;fill:#111}.highlight-text,.label,.proc-text,.scatter-text{font-family:&apos;Segoe UI&apos;,Arial,sans-serif;font-size:14px}.label{font-weight:700;fill:#333}.proc-text{fill:#222}.highlight-text,.scatter-text{font-weight:700;fill:#c00000}.scatter-text{fill:#005a9c}</style></defs><rect width="400" height="45" x="200" y="20" fill="#e2f0d9" stroke="#548235" class="box"/><text x="400" y="48" class="title" text-anchor="middle">Proceso 0 - Arreglo Completo: 1,000,000 elementos</text><line x1="400" x2="400" y1="65" y2="150" class="line"/><rect width="360" height="26" x="220" y="95" fill="#fff" rx="4"/><text x="400" y="113" class="scatter-text" text-anchor="middle">MPI_Scatter (Reparte bloques de 250,000)</text><line x1="118" x2="682" y1="150" y2="150" class="line"/><line x1="118" x2="118" y1="150" y2="190" marker-end="url(#arrow)" class="line"/><line x1="306" x2="306" y1="150" y2="190" marker-end="url(#arrow)" class="line"/><line x1="494" x2="494" y1="150" y2="190" marker-end="url(#arrow)" class="line"/><line x1="682" x2="682" y1="150" y2="190" marker-end="url(#arrow)" class="line"/><rect width="140" height="85" x="48" y="200" fill="#ddebf7" stroke="#2e75b6" class="box"/><text x="118" y="225" class="label" text-anchor="middle">Proc 0</text><text x="118" y="245" class="proc-text" text-anchor="middle">Bloque 0</text><text x="118" y="265" class="proc-text" text-anchor="middle">OpenMP Sum</text><rect width="140" height="85" x="236" y="200" fill="#ddebf7" stroke="#2e75b6" class="box"/><text x="306" y="225" class="label" text-anchor="middle">Proc 1</text><text x="306" y="245" class="proc-text" text-anchor="middle">Bloque 1</text><text x="306" y="265" class="proc-text" text-anchor="middle">OpenMP Sum</text><rect width="140" height="85" x="424" y="200" fill="#ddebf7" stroke="#2e75b6" class="box"/><text x="494" y="225" class="label" text-anchor="middle">Proc 2</text><text x="494" y="245" class="proc-text" text-anchor="middle">Bloque 2</text><text x="494" y="265" class="proc-text" text-anchor="middle">OpenMP Sum</text><rect width="140" height="85" x="612" y="200" fill="#ddebf7" stroke="#2e75b6" class="box"/><text x="682" y="225" class="label" text-anchor="middle">Proc 3</text><text x="682" y="245" class="proc-text" text-anchor="middle">Bloque 3</text><text x="682" y="265" class="proc-text" text-anchor="middle">OpenMP Sum</text><line x1="118" x2="118" y1="285" y2="330" class="line"/><line x1="306" x2="306" y1="285" y2="330" class="line"/><line x1="494" x2="494" y1="285" y2="330" class="line"/><line x1="682" x2="682" y1="285" y2="330" class="line"/><line x1="118" x2="682" y1="330" y2="330" class="line"/><line x1="400" x2="400" y1="330" y2="390" marker-end="url(#arrow)" class="line"/><rect width="420" height="26" x="190" y="348" fill="#fff" rx="4"/><text x="400" y="366" class="highlight-text" text-anchor="middle">MPI_Reduce (Opera: MPI_SUM sobre sumas parciales)</text><rect width="704" height="45" x="48" y="400" fill="#fff2cc" stroke="#d6b656" class="box"/><text x="400" y="428" class="title" text-anchor="middle">Proceso 0: Suma Total = 499999500000</text></svg>