<svg xmlns="http://www.w3.org/2000/svg" width="100%" viewBox="0 0 800 580"><rect width="800" height="580" fill="#fff"/><rect width="600" height="350" x="100" y="30" fill="#f8f9fa" stroke="#6c757d" stroke-width="2" rx="8" ry="8"/><text x="400" y="65" fill="#343a40" font-family="Arial" font-size="18" font-weight="bold" text-anchor="middle">Nodo Físico</text><rect width="240" height="180" x="140" y="100" fill="#ddebf7" stroke="#2e75b6" stroke-width="2" rx="6" ry="6"/><text x="260" y="130" fill="#1f4e79" font-family="Arial" font-size="16" font-weight="bold" text-anchor="middle">Proceso MPI 0</text><rect width="100" height="40" x="155" y="150" fill="#fff" stroke="#4472c4" stroke-width="1.5" rx="4"/><text x="205" y="175" fill="#333" font-family="Arial" font-size="14" text-anchor="middle">[Hilo 0]</text><rect width="100" height="40" x="265" y="150" fill="#fff" stroke="#4472c4" stroke-width="1.5" rx="4"/><text x="315" y="175" fill="#333" font-family="Arial" font-size="14" text-anchor="middle">[Hilo 1]</text><rect width="100" height="40" x="155" y="210" fill="#fff" stroke="#4472c4" stroke-width="1.5" rx="4"/><text x="205" y="235" fill="#333" font-family="Arial" font-size="14" text-anchor="middle">[Hilo 2]</text><rect width="100" height="40" x="265" y="210" fill="#fff" stroke="#4472c4" stroke-width="1.5" rx="4"/><text x="315" y="235" fill="#333" font-family="Arial" font-size="14" text-anchor="middle">[Hilo 3]</text><rect width="240" height="180" x="420" y="100" fill="#ddebf7" stroke="#2e75b6" stroke-width="2" rx="6" ry="6"/><text x="540" y="130" fill="#1f4e79" font-family="Arial" font-size="16" font-weight="bold" text-anchor="middle">Proceso MPI 1</text><rect width="100" height="40" x="435" y="150" fill="#fff" stroke="#4472c4" stroke-width="1.5" rx="4"/><text x="485" y="175" fill="#333" font-family="Arial" font-size="14" text-anchor="middle">[Hilo 0]</text><rect width="100" height="40" x="545" y="150" fill="#fff" stroke="#4472c4" stroke-width="1.5" rx="4"/><text x="595" y="175" fill="#333" font-family="Arial" font-size="14" text-anchor="middle">[Hilo 1]</text><path fill="none" stroke="#548235" stroke-width="3" d="M 260 280 L 260 330 L 540 330 L 540 280"/><text x="400" y="325" fill="#385723" font-family="Arial" font-size="15" font-weight="bold" text-anchor="middle">Memoria Compartida</text><line x1="400" x2="400" y1="380" y2="480" stroke="#c00000" stroke-dasharray="6 4" stroke-width="3"/><text x="400" y="434" fill="#c00000" font-family="Arial" font-size="14" font-weight="bold" text-anchor="middle">Comunicación vía MPI (Red/Sockets)</text><rect width="600" height="70" x="100" y="480" fill="#f8f9fa" stroke="#6c757d" stroke-width="2" rx="8" ry="8"/><text x="400" y="522" fill="#343a40" font-family="Arial" font-size="18" font-weight="bold" text-anchor="middle">Otro Nodo</text></svg>